<?xml version="1.0" encoding="UTF-8"?>
<svg id="Layer_1" data-name="Layer 1" xmlns="http://www.w3.org/2000/svg" xmlns:xlink="http://www.w3.org/1999/xlink" viewBox="0 0 100 100">
  <defs>
    <style>
      .cls-1 {
        fill: url(#linear-gradient-2);
      }

      .cls-2 {
        fill: url(#linear-gradient-3);
      }

      .cls-3 {
        fill: url(#linear-gradient);
      }
    </style>
    <linearGradient id="linear-gradient" x1="5" y1="60.24" x2="95" y2="60.24" gradientUnits="userSpaceOnUse">
      <stop offset="0" stop-color="#ffff95"/>
      <stop offset=".32" stop-color="#ddac17"/>
      <stop offset=".68" stop-color="#fffa8a"/>
      <stop offset="1" stop-color="#ecc440"/>
      <stop offset="1" stop-color="#f5c230"/>
    </linearGradient>
    <linearGradient id="linear-gradient-2" x1="33.01" y1="18.28" x2="67.19" y2="18.28" xlink:href="#linear-gradient"/>
    <linearGradient id="linear-gradient-3" x1="5" y1="50" x2="95" y2="50" gradientUnits="userSpaceOnUse">
      <stop offset="0" stop-color="#b37e2b"/>
      <stop offset="0" stop-color="#b37e2b"/>
      <stop offset=".09" stop-color="#d0a14b"/>
      <stop offset=".18" stop-color="#e5bb62"/>
      <stop offset=".26" stop-color="#f1ca71"/>
      <stop offset=".32" stop-color="#f6d076"/>
      <stop offset=".4" stop-color="#f2cb71"/>
      <stop offset=".48" stop-color="#e7bd65"/>
      <stop offset=".57" stop-color="#d5a751"/>
      <stop offset=".66" stop-color="#bc8835"/>
      <stop offset=".67" stop-color="#b98532"/>
      <stop offset=".76" stop-color="#f6d076"/>
      <stop offset=".85" stop-color="#f4ce74"/>
      <stop offset=".89" stop-color="#edc770"/>
      <stop offset=".91" stop-color="#e0bb68"/>
      <stop offset=".94" stop-color="#cfab5d"/>
      <stop offset=".96" stop-color="#b9954f"/>
      <stop offset=".97" stop-color="#9d7a3e"/>
      <stop offset=".99" stop-color="#7d5b2a"/>
      <stop offset="1" stop-color="#5a3a14"/>
    </linearGradient>
  </defs>
  <g>
    <path class="cls-3" d="M16.97,80.49H5.03c0-.1-.02-.2-.03-.3,.48-.07,.95-.15,1.43-.21,1.79-.23,3.19-1.13,3.89-2.76,3.12-7.24,6.18-14.5,9.2-21.78,.78-1.89,.12-2.68-1.88-2.5-.68,.06-1.35,.26-2.02,.25-.91-.01-2.02-.51-1.51-1.47,1.15-2.17-.36-2.74-.3-3.92,.07-1.41,.66-1.11,.84-2.31-.33-.19-.96-.56-2-1.18,1.44-1.15,2.73-2.17,4.06-3.23-.63-.59-.93-.88-1.06-1,.44-.23,1.1-.34,1.3-.71,.62-1.14,1.08-2.38,1.73-3.9-1.69,.17-3.24,.33-4.99,.5,1.53-1.33,3.21-1.88,5.06-2.11,4.74-.58,8.14,1.48,10.68,5.31,3.03,4.56,4.8,9.68,6.58,14.79,1.92,5.51,3.81,11.03,5.72,16.55,.17,.48,.35,.97,.6,1.41,.53,.93,1.33,1.43,2.42,1.36,1.09-.07,2-.65,2.21-1.65,.28-1.39,.66-3,.24-4.24-3.24-9.42-5.96-19.06-10.6-27.94-2.03-3.89-4.61-7.37-8.43-9.76-2.17-1.36-4.52-1.9-7.06-1.86,3.56-1.36,7.05-1.14,10.45,.51,4.18,2.02,7.15,5.37,9.03,9.44,2.32,5.01,4.17,10.24,6.15,15.41,1.13,2.94,2.1,5.94,3.43,8.95,.58-1.65,1.14-3.31,1.75-4.95,2.04-5.47,3.84-11.04,6.21-16.36,2.3-5.16,5.8-9.56,10.79-12.49,2.89-1.7,5.95-2.57,9.28-1.37,.62,.22,1.2,.58,2.09,1.02-6.1-.43-10.46,1.89-13.64,6.61-4.2,6.24-7,13.16-9.58,20.16-1.53,4.16-2.92,8.37-4.17,12.62-.36,1.23-.21,2.7,.04,4,.2,1.07,1.1,1.85,2.32,1.85,1.19,0,2.11-.45,2.56-1.7,1.94-5.46,3.89-10.92,5.9-16.35,1.71-4.63,3.05-9.43,5.68-13.67,1.01-1.63,2.13-3.19,3.26-4.74,3.65-4.98,9.47-5.04,13.51,.02-1.02-.36-1.84-.73-2.7-.93-.87-.2-1.78-.24-2.78-.37,.77,1.58,1.36,2.93,2.1,4.2,.2,.34,.82,.43,1.32,.67-.14,.08-.47,.29-.98,.6,1.33,1.27,2.5,2.39,3.79,3.62-.76,.47-1.35,.84-2.04,1.27,1.32,1.24,1.76,2.34,.59,3.88-.14,.3,.13,.81,.26,1.21,.57,1.67-.13,2.57-1.89,2.41-.68-.06-1.36-.21-2.03-.21-1.14,0-1.62,.51-1.32,1.62,.36,1.35,.91,2.65,1.44,3.95,2.23,5.44,4.56,10.84,6.72,16.3,1.12,2.84,2.77,4.86,6,5.14,.14,.01,.26,.12,.36,.4h-11.97c-.03-.08-.06-.15-.08-.23,.27-.11,.52-.27,.8-.34,2.02-.48,2.71-1.59,1.99-3.57-1.4-3.84-2.87-7.66-4.35-11.47-1.97-5.08-3.96-10.16-5.99-15.22-.29-.72-.73-1.5-1.33-1.96-1.37-1.05-3.2-.38-3.79,1.31-2.88,8.29-5.72,16.6-8.64,24.88-.71,2.01-1.69,3.91-2.43,5.91-.2,.54-.18,1.35,.09,1.86,1.53,2.86,4.49,3.95,8.29,3.2,.8-.16,1.6-.34,2.45-.31-2,1.31-4.25,1.74-6.58,1.99-2.55,.27-4.58-1.1-6.77-1.99-1.29,1.58-2.55,3.12-3.82,4.68,3,2.86,6.55,3.92,10.7,3.08,0,.11,0,.22,0,.33-.16,.15-.3,.38-.49,.45-4.19,1.59-8.21,1.01-12.06-1.06-.77-.42-1.26-.51-2.05-.06-3.58,2.04-7.39,2.45-11.36,1.39-.37-.1-.72-.29-1.08-.68,4.12,.33,7.75-.65,10.85-3.44-1.33-1.58-2.6-3.11-3.93-4.69-4.48,2.81-8.96,2.35-13.44,.22,0-.12,.02-.24,.02-.36,.4,.08,.8,.15,1.2,.25,2.2,.57,4.4,.66,6.53-.18,.84-.33,1.64-.93,2.25-1.59,1.01-1.08,1.2-2.21,.59-3.81-2.66-7.01-5.08-14.1-7.59-21.17-1.02-2.89-1.99-5.81-3.05-8.68-.84-2.26-3.09-2.59-4.57-.68-.41,.53-.68,1.18-.92,1.81-3.25,8.24-6.49,16.49-9.72,24.74-.19,.47-.36,.96-.48,1.46-.44,1.85,.29,3.03,2.14,3.51,.2,.05,.4,.11,.59,.17-.01,.07-.02,.14-.04,.21Zm33.03,6.38c1.22-1.83,2.26-3.38,3.26-4.95,.12-.18,.17-.53,.08-.7-1.11-1.98-2.25-3.94-3.33-5.8-1.01,1.84-2.07,3.73-3.09,5.64-.12,.22-.17,.62-.06,.82,.96,1.59,1.97,3.15,3.13,4.99Z"/>
    <path class="cls-1" d="M50.1,30.6l9.23,.03,5.99-18.79c.14,.04,.28,.07,.44,.07,.79,0,1.43-.64,1.43-1.43s-.64-1.43-1.43-1.43-1.43,.64-1.43,1.43c0,.49,.24,.92,.62,1.17l-6.9,10.09-.34-7.36s.09,.01,.14,.01c.79,0,1.43-.64,1.43-1.43s-.64-1.43-1.43-1.43-1.43,.64-1.43,1.43c0,.61,.38,1.12,.92,1.33l-3.66,5.7-3.34-11.23c.68-.11,1.2-.7,1.2-1.41,0-.79-.64-1.43-1.43-1.43s-1.43,.64-1.43,1.43c0,.71,.52,1.29,1.2,1.41l-3.34,11.23-3.66-5.7c.54-.21,.92-.72,.92-1.33,0-.79-.64-1.43-1.43-1.43s-1.43,.64-1.43,1.43,.64,1.43,1.43,1.43c.05,0,.1,0,.14-.01l-.34,7.36-6.9-10.09c.37-.26,.62-.69,.62-1.17,0-.79-.64-1.43-1.43-1.43s-1.43,.64-1.43,1.43,.64,1.43,1.43,1.43c.15,0,.3-.03,.44-.07l5.99,18.79,9.23-.03Z"/>
  </g>
  <g>
    <g>
      <path class="cls-2" d="M16.97,80.49H5.03c0-.1-.02-.2-.03-.3,.48-.07,.95-.15,1.43-.21,1.79-.23,3.19-1.13,3.89-2.76,3.12-7.24,6.18-14.5,9.2-21.78,.78-1.89,.12-2.68-1.88-2.5-.68,.06-1.35,.26-2.02,.25-.91-.01-2.02-.51-1.51-1.47,1.15-2.17-.36-2.74-.3-3.92,.07-1.41,.66-1.11,.84-2.31-.33-.19-.96-.56-2-1.18,1.44-1.15,2.73-2.17,4.06-3.23-.63-.59-.93-.88-1.06-1,.44-.23,1.1-.34,1.3-.71,.62-1.14,1.08-2.38,1.73-3.9-1.69,.17-3.24,.33-4.99,.5,1.53-1.33,3.21-1.88,5.06-2.11,4.74-.58,8.14,1.48,10.68,5.31,3.03,4.56,4.8,9.68,6.58,14.79,1.92,5.51,3.81,11.03,5.72,16.55,.17,.48,.35,.97,.6,1.41,.53,.93,1.33,1.43,2.42,1.36,1.09-.07,2-.65,2.21-1.65,.28-1.39,.66-3,.24-4.24-3.24-9.42-5.96-19.06-10.6-27.94-2.03-3.89-4.61-7.37-8.43-9.76-2.17-1.36-4.52-1.9-7.06-1.86,3.56-1.36,7.05-1.14,10.45,.51,4.18,2.02,7.15,5.37,9.03,9.44,2.32,5.01,4.17,10.24,6.15,15.41,1.13,2.94,2.1,5.94,3.43,8.95,.58-1.65,1.14-3.31,1.75-4.95,2.04-5.47,3.84-11.04,6.21-16.36,2.3-5.16,5.8-9.56,10.79-12.49,2.89-1.7,5.95-2.57,9.28-1.37,.62,.22,1.2,.58,2.09,1.02-6.1-.43-10.46,1.89-13.64,6.61-4.2,6.24-7,13.16-9.58,20.16-1.53,4.16-2.92,8.37-4.17,12.62-.36,1.23-.21,2.7,.04,4,.2,1.07,1.1,1.85,2.32,1.85,1.19,0,2.11-.45,2.56-1.7,1.94-5.46,3.89-10.92,5.9-16.35,1.71-4.63,3.05-9.43,5.68-13.67,1.01-1.63,2.13-3.19,3.26-4.74,3.65-4.98,9.47-5.04,13.51,.02-1.02-.36-1.84-.73-2.7-.93-.87-.2-1.78-.24-2.78-.37,.77,1.58,1.36,2.93,2.1,4.2,.2,.34,.82,.43,1.32,.67-.14,.08-.47,.29-.98,.6,1.33,1.27,2.5,2.39,3.79,3.62-.76,.47-1.35,.84-2.04,1.27,1.32,1.24,1.76,2.34,.59,3.88-.14,.3,.13,.81,.26,1.21,.57,1.67-.13,2.57-1.89,2.41-.68-.06-1.36-.21-2.03-.21-1.14,0-1.62,.51-1.32,1.62,.36,1.35,.91,2.65,1.44,3.95,2.23,5.44,4.56,10.84,6.72,16.3,1.12,2.84,2.77,4.86,6,5.14,.14,.01,.26,.12,.36,.4h-11.97c-.03-.08-.06-.15-.08-.23,.27-.11,.52-.27,.8-.34,2.02-.48,2.71-1.59,1.99-3.57-1.4-3.84-2.87-7.66-4.35-11.47-1.97-5.08-3.96-10.16-5.99-15.22-.29-.72-.73-1.5-1.33-1.96-1.37-1.05-3.2-.38-3.79,1.31-2.88,8.29-5.72,16.6-8.64,24.88-.71,2.01-1.69,3.91-2.43,5.91-.2,.54-.18,1.35,.09,1.86,1.53,2.86,4.49,3.95,8.29,3.2,.8-.16,1.6-.34,2.45-.31-2,1.31-4.25,1.74-6.58,1.99-2.55,.27-4.58-1.1-6.77-1.99-1.29,1.58-2.55,3.12-3.82,4.68,3,2.86,6.55,3.92,10.7,3.08,0,.11,0,.22,0,.33-.16,.15-.3,.38-.49,.45-4.19,1.59-8.21,1.01-12.06-1.06-.77-.42-1.26-.51-2.05-.06-3.58,2.04-7.39,2.45-11.36,1.39-.37-.1-.72-.29-1.08-.68,4.12,.33,7.75-.65,10.85-3.44-1.33-1.58-2.6-3.11-3.93-4.69-4.48,2.81-8.96,2.35-13.44,.22,0-.12,.02-.24,.02-.36,.4,.08,.8,.15,1.2,.25,2.2,.57,4.4,.66,6.53-.18,.84-.33,1.64-.93,2.25-1.59,1.01-1.08,1.2-2.21,.59-3.81-2.66-7.01-5.08-14.1-7.59-21.17-1.02-2.89-1.99-5.81-3.05-8.68-.84-2.26-3.09-2.59-4.57-.68-.41,.53-.68,1.18-.92,1.81-3.25,8.24-6.49,16.49-9.72,24.74-.19,.47-.36,.96-.48,1.46-.44,1.85,.29,3.03,2.14,3.51,.2,.05,.4,.11,.59,.17-.01,.07-.02,.14-.04,.21Zm33.03,6.38c1.22-1.83,2.26-3.38,3.26-4.95,.12-.18,.17-.53,.08-.7-1.11-1.98-2.25-3.94-3.33-5.8-1.01,1.84-2.07,3.73-3.09,5.64-.12,.22-.17,.62-.06,.82,.96,1.59,1.97,3.15,3.13,4.99Z"/>
      <path class="cls-2" d="M16.97,80.49H5.03c0-.1-.02-.2-.03-.3,.48-.07,.95-.15,1.43-.21,1.79-.23,3.19-1.13,3.89-2.76,3.12-7.24,6.18-14.5,9.2-21.78,.78-1.89,.12-2.68-1.88-2.5-.68,.06-1.35,.26-2.02,.25-.91-.01-2.02-.51-1.51-1.47,1.15-2.17-.36-2.74-.3-3.92,.07-1.41,.66-1.11,.84-2.31-.33-.19-.96-.56-2-1.18,1.44-1.15,2.73-2.17,4.06-3.23-.63-.59-.93-.88-1.06-1,.44-.23,1.1-.34,1.3-.71,.62-1.14,1.08-2.38,1.73-3.9-1.69,.17-3.24,.33-4.99,.5,1.53-1.33,3.21-1.88,5.06-2.11,4.74-.58,8.14,1.48,10.68,5.31,3.03,4.56,4.8,9.68,6.58,14.79,1.92,5.51,3.81,11.03,5.72,16.55,.17,.48,.35,.97,.6,1.41,.53,.93,1.33,1.43,2.42,1.36,1.09-.07,2-.65,2.21-1.65,.28-1.39,.66-3,.24-4.24-3.24-9.42-5.96-19.06-10.6-27.94-2.03-3.89-4.61-7.37-8.43-9.76-2.17-1.36-4.52-1.9-7.06-1.86,3.56-1.36,7.05-1.14,10.45,.51,4.18,2.02,7.15,5.37,9.03,9.44,2.32,5.01,4.17,10.24,6.15,15.41,1.13,2.94,2.1,5.94,3.43,8.95,.58-1.65,1.14-3.31,1.75-4.95,2.04-5.47,3.84-11.04,6.21-16.36,2.3-5.16,5.8-9.56,10.79-12.49,2.89-1.7,5.95-2.57,9.28-1.37,.62,.22,1.2,.58,2.09,1.02-6.1-.43-10.46,1.89-13.64,6.61-4.2,6.24-7,13.16-9.58,20.16-1.53,4.16-2.92,8.37-4.17,12.62-.36,1.23-.21,2.7,.04,4,.2,1.07,1.1,1.85,2.32,1.85,1.19,0,2.11-.45,2.56-1.7,1.94-5.46,3.89-10.92,5.9-16.35,1.71-4.63,3.05-9.43,5.68-13.67,1.01-1.63,2.13-3.19,3.26-4.74,3.65-4.98,9.47-5.04,13.51,.02-1.02-.36-1.84-.73-2.7-.93-.87-.2-1.78-.24-2.78-.37,.77,1.58,1.36,2.93,2.1,4.2,.2,.34,.82,.43,1.32,.67-.14,.08-.47,.29-.98,.6,1.33,1.27,2.5,2.39,3.79,3.62-.76,.47-1.35,.84-2.04,1.27,1.32,1.24,1.76,2.34,.59,3.88-.14,.3,.13,.81,.26,1.21,.57,1.67-.13,2.57-1.89,2.41-.68-.06-1.36-.21-2.03-.21-1.14,0-1.62,.51-1.32,1.62,.36,1.35,.91,2.65,1.44,3.95,2.23,5.44,4.56,10.84,6.72,16.3,1.12,2.84,2.77,4.86,6,5.14,.14,.01,.26,.12,.36,.4h-11.97c-.03-.08-.06-.15-.08-.23,.27-.11,.52-.27,.8-.34,2.02-.48,2.71-1.59,1.99-3.57-1.4-3.84-2.87-7.66-4.35-11.47-1.97-5.08-3.96-10.16-5.99-15.22-.29-.72-.73-1.5-1.33-1.96-1.37-1.05-3.2-.38-3.79,1.31-2.88,8.29-5.72,16.6-8.64,24.88-.71,2.01-1.69,3.91-2.43,5.91-.2,.54-.18,1.35,.09,1.86,1.53,2.86,4.49,3.95,8.29,3.2,.8-.16,1.6-.34,2.45-.31-2,1.31-4.25,1.74-6.58,1.99-2.55,.27-4.58-1.1-6.77-1.99-1.29,1.58-2.55,3.12-3.82,4.68,3,2.86,6.55,3.92,10.7,3.08,0,.11,0,.22,0,.33-.16,.15-.3,.38-.49,.45-4.19,1.59-8.21,1.01-12.06-1.06-.77-.42-1.26-.51-2.05-.06-3.58,2.04-7.39,2.45-11.36,1.39-.37-.1-.72-.29-1.08-.68,4.12,.33,7.75-.65,10.85-3.44-1.33-1.58-2.6-3.11-3.93-4.69-4.48,2.81-8.96,2.35-13.44,.22,0-.12,.02-.24,.02-.36,.4,.08,.8,.15,1.2,.25,2.2,.57,4.4,.66,6.53-.18,.84-.33,1.64-.93,2.25-1.59,1.01-1.08,1.2-2.21,.59-3.81-2.66-7.01-5.08-14.1-7.59-21.17-1.02-2.89-1.99-5.81-3.05-8.68-.84-2.26-3.09-2.59-4.57-.68-.41,.53-.68,1.18-.92,1.81-3.25,8.24-6.49,16.49-9.72,24.74-.19,.47-.36,.96-.48,1.46-.44,1.85,.29,3.03,2.14,3.51,.2,.05,.4,.11,.59,.17-.01,.07-.02,.14-.04,.21Zm33.03,6.38c1.22-1.83,2.26-3.38,3.26-4.95,.12-.18,.17-.53,.08-.7-1.11-1.98-2.25-3.94-3.33-5.8-1.01,1.84-2.07,3.73-3.09,5.64-.12,.22-.17,.62-.06,.82,.96,1.59,1.97,3.15,3.13,4.99Z"/>
    </g>
    <path class="cls-2" d="M50.1,30.6l9.23,.03,5.99-18.79c.14,.04,.28,.07,.44,.07,.79,0,1.43-.64,1.43-1.43s-.64-1.43-1.43-1.43-1.43,.64-1.43,1.43c0,.49,.24,.92,.62,1.17l-6.9,10.09-.34-7.36s.09,.01,.14,.01c.79,0,1.43-.64,1.43-1.43s-.64-1.43-1.43-1.43-1.43,.64-1.43,1.43c0,.61,.38,1.12,.92,1.33l-3.66,5.7-3.34-11.23c.68-.11,1.2-.7,1.2-1.41,0-.79-.64-1.43-1.43-1.43s-1.43,.64-1.43,1.43c0,.71,.52,1.29,1.2,1.41l-3.34,11.23-3.66-5.7c.54-.21,.92-.72,.92-1.33,0-.79-.64-1.43-1.43-1.43s-1.43,.64-1.43,1.43,.64,1.43,1.43,1.43c.05,0,.1,0,.14-.01l-.34,7.36-6.9-10.09c.37-.26,.62-.69,.62-1.17,0-.79-.64-1.43-1.43-1.43s-1.43,.64-1.43,1.43,.64,1.43,1.43,1.43c.15,0,.3-.03,.44-.07l5.99,18.79,9.23-.03Z"/>
  </g>
</svg>